%TF.GenerationSoftware,KiCad,Pcbnew,(5.1.6-0-10_14)*%
%TF.CreationDate,2022-03-22T21:21:40-04:00*%
%TF.ProjectId,MPPT Chip,4d505054-2043-4686-9970-2e6b69636164,v01*%
%TF.SameCoordinates,Original*%
%TF.FileFunction,Copper,L2,Bot*%
%TF.FilePolarity,Positive*%
%FSLAX46Y46*%
G04 Gerber Fmt 4.6, Leading zero omitted, Abs format (unit mm)*
G04 Created by KiCad (PCBNEW (5.1.6-0-10_14)) date 2022-03-22 21:21:40*
%MOMM*%
%LPD*%
G01*
G04 APERTURE LIST*
%TA.AperFunction,ComponentPad*%
%ADD10C,1.700000*%
%TD*%
%TA.AperFunction,ComponentPad*%
%ADD11O,1.700000X1.700000*%
%TD*%
%TA.AperFunction,ComponentPad*%
%ADD12R,1.700000X1.700000*%
%TD*%
%TA.AperFunction,ViaPad*%
%ADD13C,0.800000*%
%TD*%
%TA.AperFunction,Conductor*%
%ADD14C,0.400000*%
%TD*%
%TA.AperFunction,Conductor*%
%ADD15C,0.254000*%
%TD*%
G04 APERTURE END LIST*
D10*
%TO.P,J1,5*%
%TO.N,/OUT*%
X68272660Y-91203780D03*
D11*
%TO.P,J1,6*%
%TO.N,/VBST*%
X80972660Y-91203780D03*
%TO.P,J1,4*%
%TO.N,/PV+*%
X68272660Y-93743780D03*
%TO.P,J1,7*%
%TO.N,/GND*%
X80972660Y-93743780D03*
%TO.P,J1,3*%
X68272660Y-96283780D03*
%TO.P,J1,8*%
X80972660Y-96283780D03*
%TO.P,J1,2*%
X68272660Y-98823780D03*
%TO.P,J1,9*%
X80972660Y-98823780D03*
D12*
%TO.P,J1,1*%
%TO.N,/VCC*%
X68272660Y-101363780D03*
D11*
%TO.P,J1,10*%
%TO.N,/GND*%
X80972660Y-101363780D03*
%TD*%
D13*
%TO.N,/GND*%
X72715120Y-99923600D03*
X71079360Y-96939100D03*
%TD*%
D14*
%TO.N,/GND*%
X68432680Y-98983800D02*
X68272660Y-98823780D01*
X72715120Y-99923600D02*
X74018140Y-101226620D01*
X80835500Y-101226620D02*
X80972660Y-101363780D01*
X74018140Y-101226620D02*
X80835500Y-101226620D01*
X70241160Y-98823780D02*
X68272660Y-98823780D01*
X71079360Y-97985580D02*
X70241160Y-98823780D01*
X71079360Y-96939100D02*
X71079360Y-97985580D01*
%TD*%
D15*
%TO.N,/GND*%
G36*
X90096740Y-104708696D02*
G01*
X58330700Y-104656684D01*
X58330700Y-99180670D01*
X66831184Y-99180670D01*
X66875835Y-99327879D01*
X67001019Y-99590700D01*
X67175072Y-99824049D01*
X67391305Y-100018958D01*
X67579293Y-100130937D01*
X67422660Y-100130937D01*
X67347971Y-100138293D01*
X67276152Y-100160079D01*
X67209964Y-100195458D01*
X67151949Y-100243069D01*
X67104338Y-100301084D01*
X67068959Y-100367272D01*
X67047173Y-100439091D01*
X67039817Y-100513780D01*
X67039817Y-102213780D01*
X67047173Y-102288469D01*
X67068959Y-102360288D01*
X67104338Y-102426476D01*
X67151949Y-102484491D01*
X67209964Y-102532102D01*
X67276152Y-102567481D01*
X67347971Y-102589267D01*
X67422660Y-102596623D01*
X69122660Y-102596623D01*
X69197349Y-102589267D01*
X69269168Y-102567481D01*
X69335356Y-102532102D01*
X69393371Y-102484491D01*
X69440982Y-102426476D01*
X69476361Y-102360288D01*
X69498147Y-102288469D01*
X69505503Y-102213780D01*
X69505503Y-101720670D01*
X79531184Y-101720670D01*
X79575835Y-101867879D01*
X79701019Y-102130700D01*
X79875072Y-102364049D01*
X80091305Y-102558958D01*
X80341408Y-102707937D01*
X80615769Y-102805261D01*
X80845660Y-102684594D01*
X80845660Y-101490780D01*
X81099660Y-101490780D01*
X81099660Y-102684594D01*
X81329551Y-102805261D01*
X81603912Y-102707937D01*
X81854015Y-102558958D01*
X82070248Y-102364049D01*
X82244301Y-102130700D01*
X82369485Y-101867879D01*
X82414136Y-101720670D01*
X82292815Y-101490780D01*
X81099660Y-101490780D01*
X80845660Y-101490780D01*
X79652505Y-101490780D01*
X79531184Y-101720670D01*
X69505503Y-101720670D01*
X69505503Y-100513780D01*
X69498147Y-100439091D01*
X69476361Y-100367272D01*
X69440982Y-100301084D01*
X69393371Y-100243069D01*
X69335356Y-100195458D01*
X69269168Y-100160079D01*
X69197349Y-100138293D01*
X69122660Y-100130937D01*
X68966027Y-100130937D01*
X69154015Y-100018958D01*
X69370248Y-99824049D01*
X69544301Y-99590700D01*
X69669485Y-99327879D01*
X69714136Y-99180670D01*
X79531184Y-99180670D01*
X79575835Y-99327879D01*
X79701019Y-99590700D01*
X79875072Y-99824049D01*
X80091305Y-100018958D01*
X80216915Y-100093780D01*
X80091305Y-100168602D01*
X79875072Y-100363511D01*
X79701019Y-100596860D01*
X79575835Y-100859681D01*
X79531184Y-101006890D01*
X79652505Y-101236780D01*
X80845660Y-101236780D01*
X80845660Y-98950780D01*
X81099660Y-98950780D01*
X81099660Y-101236780D01*
X82292815Y-101236780D01*
X82414136Y-101006890D01*
X82369485Y-100859681D01*
X82244301Y-100596860D01*
X82070248Y-100363511D01*
X81854015Y-100168602D01*
X81728405Y-100093780D01*
X81854015Y-100018958D01*
X82070248Y-99824049D01*
X82244301Y-99590700D01*
X82369485Y-99327879D01*
X82414136Y-99180670D01*
X82292815Y-98950780D01*
X81099660Y-98950780D01*
X80845660Y-98950780D01*
X79652505Y-98950780D01*
X79531184Y-99180670D01*
X69714136Y-99180670D01*
X69592815Y-98950780D01*
X68399660Y-98950780D01*
X68399660Y-98970780D01*
X68145660Y-98970780D01*
X68145660Y-98950780D01*
X66952505Y-98950780D01*
X66831184Y-99180670D01*
X58330700Y-99180670D01*
X58330700Y-96640670D01*
X66831184Y-96640670D01*
X66875835Y-96787879D01*
X67001019Y-97050700D01*
X67175072Y-97284049D01*
X67391305Y-97478958D01*
X67516915Y-97553780D01*
X67391305Y-97628602D01*
X67175072Y-97823511D01*
X67001019Y-98056860D01*
X66875835Y-98319681D01*
X66831184Y-98466890D01*
X66952505Y-98696780D01*
X68145660Y-98696780D01*
X68145660Y-96410780D01*
X68399660Y-96410780D01*
X68399660Y-98696780D01*
X69592815Y-98696780D01*
X69714136Y-98466890D01*
X69669485Y-98319681D01*
X69544301Y-98056860D01*
X69370248Y-97823511D01*
X69154015Y-97628602D01*
X69028405Y-97553780D01*
X69154015Y-97478958D01*
X69370248Y-97284049D01*
X69544301Y-97050700D01*
X69669485Y-96787879D01*
X69714136Y-96640670D01*
X79531184Y-96640670D01*
X79575835Y-96787879D01*
X79701019Y-97050700D01*
X79875072Y-97284049D01*
X80091305Y-97478958D01*
X80216915Y-97553780D01*
X80091305Y-97628602D01*
X79875072Y-97823511D01*
X79701019Y-98056860D01*
X79575835Y-98319681D01*
X79531184Y-98466890D01*
X79652505Y-98696780D01*
X80845660Y-98696780D01*
X80845660Y-96410780D01*
X81099660Y-96410780D01*
X81099660Y-98696780D01*
X82292815Y-98696780D01*
X82414136Y-98466890D01*
X82369485Y-98319681D01*
X82244301Y-98056860D01*
X82070248Y-97823511D01*
X81854015Y-97628602D01*
X81728405Y-97553780D01*
X81854015Y-97478958D01*
X82070248Y-97284049D01*
X82244301Y-97050700D01*
X82369485Y-96787879D01*
X82414136Y-96640670D01*
X82292815Y-96410780D01*
X81099660Y-96410780D01*
X80845660Y-96410780D01*
X79652505Y-96410780D01*
X79531184Y-96640670D01*
X69714136Y-96640670D01*
X69592815Y-96410780D01*
X68399660Y-96410780D01*
X68145660Y-96410780D01*
X66952505Y-96410780D01*
X66831184Y-96640670D01*
X58330700Y-96640670D01*
X58330700Y-95926890D01*
X66831184Y-95926890D01*
X66952505Y-96156780D01*
X68145660Y-96156780D01*
X68145660Y-96136780D01*
X68399660Y-96136780D01*
X68399660Y-96156780D01*
X69592815Y-96156780D01*
X69714136Y-95926890D01*
X69669485Y-95779681D01*
X69544301Y-95516860D01*
X69370248Y-95283511D01*
X69154015Y-95088602D01*
X68903912Y-94939623D01*
X68741492Y-94882008D01*
X68855757Y-94834678D01*
X69057377Y-94699960D01*
X69228840Y-94528497D01*
X69363558Y-94326877D01*
X69456353Y-94102849D01*
X69456786Y-94100670D01*
X79531184Y-94100670D01*
X79575835Y-94247879D01*
X79701019Y-94510700D01*
X79875072Y-94744049D01*
X80091305Y-94938958D01*
X80216915Y-95013780D01*
X80091305Y-95088602D01*
X79875072Y-95283511D01*
X79701019Y-95516860D01*
X79575835Y-95779681D01*
X79531184Y-95926890D01*
X79652505Y-96156780D01*
X80845660Y-96156780D01*
X80845660Y-93870780D01*
X81099660Y-93870780D01*
X81099660Y-96156780D01*
X82292815Y-96156780D01*
X82414136Y-95926890D01*
X82369485Y-95779681D01*
X82244301Y-95516860D01*
X82070248Y-95283511D01*
X81854015Y-95088602D01*
X81728405Y-95013780D01*
X81854015Y-94938958D01*
X82070248Y-94744049D01*
X82244301Y-94510700D01*
X82369485Y-94247879D01*
X82414136Y-94100670D01*
X82292815Y-93870780D01*
X81099660Y-93870780D01*
X80845660Y-93870780D01*
X79652505Y-93870780D01*
X79531184Y-94100670D01*
X69456786Y-94100670D01*
X69503660Y-93865023D01*
X69503660Y-93622537D01*
X69456787Y-93386890D01*
X79531184Y-93386890D01*
X79652505Y-93616780D01*
X80845660Y-93616780D01*
X80845660Y-93596780D01*
X81099660Y-93596780D01*
X81099660Y-93616780D01*
X82292815Y-93616780D01*
X82414136Y-93386890D01*
X82369485Y-93239681D01*
X82244301Y-92976860D01*
X82070248Y-92743511D01*
X81854015Y-92548602D01*
X81603912Y-92399623D01*
X81441492Y-92342008D01*
X81555757Y-92294678D01*
X81757377Y-92159960D01*
X81928840Y-91988497D01*
X82063558Y-91786877D01*
X82156353Y-91562849D01*
X82203660Y-91325023D01*
X82203660Y-91082537D01*
X82156353Y-90844711D01*
X82063558Y-90620683D01*
X81928840Y-90419063D01*
X81757377Y-90247600D01*
X81555757Y-90112882D01*
X81331729Y-90020087D01*
X81093903Y-89972780D01*
X80851417Y-89972780D01*
X80613591Y-90020087D01*
X80389563Y-90112882D01*
X80187943Y-90247600D01*
X80016480Y-90419063D01*
X79881762Y-90620683D01*
X79788967Y-90844711D01*
X79741660Y-91082537D01*
X79741660Y-91325023D01*
X79788967Y-91562849D01*
X79881762Y-91786877D01*
X80016480Y-91988497D01*
X80187943Y-92159960D01*
X80389563Y-92294678D01*
X80503828Y-92342008D01*
X80341408Y-92399623D01*
X80091305Y-92548602D01*
X79875072Y-92743511D01*
X79701019Y-92976860D01*
X79575835Y-93239681D01*
X79531184Y-93386890D01*
X69456787Y-93386890D01*
X69456353Y-93384711D01*
X69363558Y-93160683D01*
X69228840Y-92959063D01*
X69057377Y-92787600D01*
X68855757Y-92652882D01*
X68631729Y-92560087D01*
X68393903Y-92512780D01*
X68151417Y-92512780D01*
X67913591Y-92560087D01*
X67689563Y-92652882D01*
X67487943Y-92787600D01*
X67316480Y-92959063D01*
X67181762Y-93160683D01*
X67088967Y-93384711D01*
X67041660Y-93622537D01*
X67041660Y-93865023D01*
X67088967Y-94102849D01*
X67181762Y-94326877D01*
X67316480Y-94528497D01*
X67487943Y-94699960D01*
X67689563Y-94834678D01*
X67803828Y-94882008D01*
X67641408Y-94939623D01*
X67391305Y-95088602D01*
X67175072Y-95283511D01*
X67001019Y-95516860D01*
X66875835Y-95779681D01*
X66831184Y-95926890D01*
X58330700Y-95926890D01*
X58330700Y-91082537D01*
X67041660Y-91082537D01*
X67041660Y-91325023D01*
X67088967Y-91562849D01*
X67181762Y-91786877D01*
X67316480Y-91988497D01*
X67487943Y-92159960D01*
X67689563Y-92294678D01*
X67913591Y-92387473D01*
X68151417Y-92434780D01*
X68393903Y-92434780D01*
X68631729Y-92387473D01*
X68855757Y-92294678D01*
X69057377Y-92159960D01*
X69228840Y-91988497D01*
X69363558Y-91786877D01*
X69456353Y-91562849D01*
X69503660Y-91325023D01*
X69503660Y-91082537D01*
X69456353Y-90844711D01*
X69363558Y-90620683D01*
X69228840Y-90419063D01*
X69057377Y-90247600D01*
X68855757Y-90112882D01*
X68631729Y-90020087D01*
X68393903Y-89972780D01*
X68151417Y-89972780D01*
X67913591Y-90020087D01*
X67689563Y-90112882D01*
X67487943Y-90247600D01*
X67316480Y-90419063D01*
X67181762Y-90620683D01*
X67088967Y-90844711D01*
X67041660Y-91082537D01*
X58330700Y-91082537D01*
X58330700Y-89572700D01*
X90096741Y-89572700D01*
X90096740Y-104708696D01*
G37*
X90096740Y-104708696D02*
X58330700Y-104656684D01*
X58330700Y-99180670D01*
X66831184Y-99180670D01*
X66875835Y-99327879D01*
X67001019Y-99590700D01*
X67175072Y-99824049D01*
X67391305Y-100018958D01*
X67579293Y-100130937D01*
X67422660Y-100130937D01*
X67347971Y-100138293D01*
X67276152Y-100160079D01*
X67209964Y-100195458D01*
X67151949Y-100243069D01*
X67104338Y-100301084D01*
X67068959Y-100367272D01*
X67047173Y-100439091D01*
X67039817Y-100513780D01*
X67039817Y-102213780D01*
X67047173Y-102288469D01*
X67068959Y-102360288D01*
X67104338Y-102426476D01*
X67151949Y-102484491D01*
X67209964Y-102532102D01*
X67276152Y-102567481D01*
X67347971Y-102589267D01*
X67422660Y-102596623D01*
X69122660Y-102596623D01*
X69197349Y-102589267D01*
X69269168Y-102567481D01*
X69335356Y-102532102D01*
X69393371Y-102484491D01*
X69440982Y-102426476D01*
X69476361Y-102360288D01*
X69498147Y-102288469D01*
X69505503Y-102213780D01*
X69505503Y-101720670D01*
X79531184Y-101720670D01*
X79575835Y-101867879D01*
X79701019Y-102130700D01*
X79875072Y-102364049D01*
X80091305Y-102558958D01*
X80341408Y-102707937D01*
X80615769Y-102805261D01*
X80845660Y-102684594D01*
X80845660Y-101490780D01*
X81099660Y-101490780D01*
X81099660Y-102684594D01*
X81329551Y-102805261D01*
X81603912Y-102707937D01*
X81854015Y-102558958D01*
X82070248Y-102364049D01*
X82244301Y-102130700D01*
X82369485Y-101867879D01*
X82414136Y-101720670D01*
X82292815Y-101490780D01*
X81099660Y-101490780D01*
X80845660Y-101490780D01*
X79652505Y-101490780D01*
X79531184Y-101720670D01*
X69505503Y-101720670D01*
X69505503Y-100513780D01*
X69498147Y-100439091D01*
X69476361Y-100367272D01*
X69440982Y-100301084D01*
X69393371Y-100243069D01*
X69335356Y-100195458D01*
X69269168Y-100160079D01*
X69197349Y-100138293D01*
X69122660Y-100130937D01*
X68966027Y-100130937D01*
X69154015Y-100018958D01*
X69370248Y-99824049D01*
X69544301Y-99590700D01*
X69669485Y-99327879D01*
X69714136Y-99180670D01*
X79531184Y-99180670D01*
X79575835Y-99327879D01*
X79701019Y-99590700D01*
X79875072Y-99824049D01*
X80091305Y-100018958D01*
X80216915Y-100093780D01*
X80091305Y-100168602D01*
X79875072Y-100363511D01*
X79701019Y-100596860D01*
X79575835Y-100859681D01*
X79531184Y-101006890D01*
X79652505Y-101236780D01*
X80845660Y-101236780D01*
X80845660Y-98950780D01*
X81099660Y-98950780D01*
X81099660Y-101236780D01*
X82292815Y-101236780D01*
X82414136Y-101006890D01*
X82369485Y-100859681D01*
X82244301Y-100596860D01*
X82070248Y-100363511D01*
X81854015Y-100168602D01*
X81728405Y-100093780D01*
X81854015Y-100018958D01*
X82070248Y-99824049D01*
X82244301Y-99590700D01*
X82369485Y-99327879D01*
X82414136Y-99180670D01*
X82292815Y-98950780D01*
X81099660Y-98950780D01*
X80845660Y-98950780D01*
X79652505Y-98950780D01*
X79531184Y-99180670D01*
X69714136Y-99180670D01*
X69592815Y-98950780D01*
X68399660Y-98950780D01*
X68399660Y-98970780D01*
X68145660Y-98970780D01*
X68145660Y-98950780D01*
X66952505Y-98950780D01*
X66831184Y-99180670D01*
X58330700Y-99180670D01*
X58330700Y-96640670D01*
X66831184Y-96640670D01*
X66875835Y-96787879D01*
X67001019Y-97050700D01*
X67175072Y-97284049D01*
X67391305Y-97478958D01*
X67516915Y-97553780D01*
X67391305Y-97628602D01*
X67175072Y-97823511D01*
X67001019Y-98056860D01*
X66875835Y-98319681D01*
X66831184Y-98466890D01*
X66952505Y-98696780D01*
X68145660Y-98696780D01*
X68145660Y-96410780D01*
X68399660Y-96410780D01*
X68399660Y-98696780D01*
X69592815Y-98696780D01*
X69714136Y-98466890D01*
X69669485Y-98319681D01*
X69544301Y-98056860D01*
X69370248Y-97823511D01*
X69154015Y-97628602D01*
X69028405Y-97553780D01*
X69154015Y-97478958D01*
X69370248Y-97284049D01*
X69544301Y-97050700D01*
X69669485Y-96787879D01*
X69714136Y-96640670D01*
X79531184Y-96640670D01*
X79575835Y-96787879D01*
X79701019Y-97050700D01*
X79875072Y-97284049D01*
X80091305Y-97478958D01*
X80216915Y-97553780D01*
X80091305Y-97628602D01*
X79875072Y-97823511D01*
X79701019Y-98056860D01*
X79575835Y-98319681D01*
X79531184Y-98466890D01*
X79652505Y-98696780D01*
X80845660Y-98696780D01*
X80845660Y-96410780D01*
X81099660Y-96410780D01*
X81099660Y-98696780D01*
X82292815Y-98696780D01*
X82414136Y-98466890D01*
X82369485Y-98319681D01*
X82244301Y-98056860D01*
X82070248Y-97823511D01*
X81854015Y-97628602D01*
X81728405Y-97553780D01*
X81854015Y-97478958D01*
X82070248Y-97284049D01*
X82244301Y-97050700D01*
X82369485Y-96787879D01*
X82414136Y-96640670D01*
X82292815Y-96410780D01*
X81099660Y-96410780D01*
X80845660Y-96410780D01*
X79652505Y-96410780D01*
X79531184Y-96640670D01*
X69714136Y-96640670D01*
X69592815Y-96410780D01*
X68399660Y-96410780D01*
X68145660Y-96410780D01*
X66952505Y-96410780D01*
X66831184Y-96640670D01*
X58330700Y-96640670D01*
X58330700Y-95926890D01*
X66831184Y-95926890D01*
X66952505Y-96156780D01*
X68145660Y-96156780D01*
X68145660Y-96136780D01*
X68399660Y-96136780D01*
X68399660Y-96156780D01*
X69592815Y-96156780D01*
X69714136Y-95926890D01*
X69669485Y-95779681D01*
X69544301Y-95516860D01*
X69370248Y-95283511D01*
X69154015Y-95088602D01*
X68903912Y-94939623D01*
X68741492Y-94882008D01*
X68855757Y-94834678D01*
X69057377Y-94699960D01*
X69228840Y-94528497D01*
X69363558Y-94326877D01*
X69456353Y-94102849D01*
X69456786Y-94100670D01*
X79531184Y-94100670D01*
X79575835Y-94247879D01*
X79701019Y-94510700D01*
X79875072Y-94744049D01*
X80091305Y-94938958D01*
X80216915Y-95013780D01*
X80091305Y-95088602D01*
X79875072Y-95283511D01*
X79701019Y-95516860D01*
X79575835Y-95779681D01*
X79531184Y-95926890D01*
X79652505Y-96156780D01*
X80845660Y-96156780D01*
X80845660Y-93870780D01*
X81099660Y-93870780D01*
X81099660Y-96156780D01*
X82292815Y-96156780D01*
X82414136Y-95926890D01*
X82369485Y-95779681D01*
X82244301Y-95516860D01*
X82070248Y-95283511D01*
X81854015Y-95088602D01*
X81728405Y-95013780D01*
X81854015Y-94938958D01*
X82070248Y-94744049D01*
X82244301Y-94510700D01*
X82369485Y-94247879D01*
X82414136Y-94100670D01*
X82292815Y-93870780D01*
X81099660Y-93870780D01*
X80845660Y-93870780D01*
X79652505Y-93870780D01*
X79531184Y-94100670D01*
X69456786Y-94100670D01*
X69503660Y-93865023D01*
X69503660Y-93622537D01*
X69456787Y-93386890D01*
X79531184Y-93386890D01*
X79652505Y-93616780D01*
X80845660Y-93616780D01*
X80845660Y-93596780D01*
X81099660Y-93596780D01*
X81099660Y-93616780D01*
X82292815Y-93616780D01*
X82414136Y-93386890D01*
X82369485Y-93239681D01*
X82244301Y-92976860D01*
X82070248Y-92743511D01*
X81854015Y-92548602D01*
X81603912Y-92399623D01*
X81441492Y-92342008D01*
X81555757Y-92294678D01*
X81757377Y-92159960D01*
X81928840Y-91988497D01*
X82063558Y-91786877D01*
X82156353Y-91562849D01*
X82203660Y-91325023D01*
X82203660Y-91082537D01*
X82156353Y-90844711D01*
X82063558Y-90620683D01*
X81928840Y-90419063D01*
X81757377Y-90247600D01*
X81555757Y-90112882D01*
X81331729Y-90020087D01*
X81093903Y-89972780D01*
X80851417Y-89972780D01*
X80613591Y-90020087D01*
X80389563Y-90112882D01*
X80187943Y-90247600D01*
X80016480Y-90419063D01*
X79881762Y-90620683D01*
X79788967Y-90844711D01*
X79741660Y-91082537D01*
X79741660Y-91325023D01*
X79788967Y-91562849D01*
X79881762Y-91786877D01*
X80016480Y-91988497D01*
X80187943Y-92159960D01*
X80389563Y-92294678D01*
X80503828Y-92342008D01*
X80341408Y-92399623D01*
X80091305Y-92548602D01*
X79875072Y-92743511D01*
X79701019Y-92976860D01*
X79575835Y-93239681D01*
X79531184Y-93386890D01*
X69456787Y-93386890D01*
X69456353Y-93384711D01*
X69363558Y-93160683D01*
X69228840Y-92959063D01*
X69057377Y-92787600D01*
X68855757Y-92652882D01*
X68631729Y-92560087D01*
X68393903Y-92512780D01*
X68151417Y-92512780D01*
X67913591Y-92560087D01*
X67689563Y-92652882D01*
X67487943Y-92787600D01*
X67316480Y-92959063D01*
X67181762Y-93160683D01*
X67088967Y-93384711D01*
X67041660Y-93622537D01*
X67041660Y-93865023D01*
X67088967Y-94102849D01*
X67181762Y-94326877D01*
X67316480Y-94528497D01*
X67487943Y-94699960D01*
X67689563Y-94834678D01*
X67803828Y-94882008D01*
X67641408Y-94939623D01*
X67391305Y-95088602D01*
X67175072Y-95283511D01*
X67001019Y-95516860D01*
X66875835Y-95779681D01*
X66831184Y-95926890D01*
X58330700Y-95926890D01*
X58330700Y-91082537D01*
X67041660Y-91082537D01*
X67041660Y-91325023D01*
X67088967Y-91562849D01*
X67181762Y-91786877D01*
X67316480Y-91988497D01*
X67487943Y-92159960D01*
X67689563Y-92294678D01*
X67913591Y-92387473D01*
X68151417Y-92434780D01*
X68393903Y-92434780D01*
X68631729Y-92387473D01*
X68855757Y-92294678D01*
X69057377Y-92159960D01*
X69228840Y-91988497D01*
X69363558Y-91786877D01*
X69456353Y-91562849D01*
X69503660Y-91325023D01*
X69503660Y-91082537D01*
X69456353Y-90844711D01*
X69363558Y-90620683D01*
X69228840Y-90419063D01*
X69057377Y-90247600D01*
X68855757Y-90112882D01*
X68631729Y-90020087D01*
X68393903Y-89972780D01*
X68151417Y-89972780D01*
X67913591Y-90020087D01*
X67689563Y-90112882D01*
X67487943Y-90247600D01*
X67316480Y-90419063D01*
X67181762Y-90620683D01*
X67088967Y-90844711D01*
X67041660Y-91082537D01*
X58330700Y-91082537D01*
X58330700Y-89572700D01*
X90096741Y-89572700D01*
X90096740Y-104708696D01*
%TD*%
M02*
