%TF.GenerationSoftware,KiCad,Pcbnew,(5.1.6-0-10_14)*%
%TF.CreationDate,2022-03-22T21:21:40-04:00*%
%TF.ProjectId,MPPT Chip,4d505054-2043-4686-9970-2e6b69636164,v01*%
%TF.SameCoordinates,Original*%
%TF.FileFunction,Copper,L1,Top*%
%TF.FilePolarity,Positive*%
%FSLAX46Y46*%
G04 Gerber Fmt 4.6, Leading zero omitted, Abs format (unit mm)*
G04 Created by KiCad (PCBNEW (5.1.6-0-10_14)) date 2022-03-22 21:21:40*
%MOMM*%
%LPD*%
G01*
G04 APERTURE LIST*
%TA.AperFunction,ComponentPad*%
%ADD10C,1.700000*%
%TD*%
%TA.AperFunction,ComponentPad*%
%ADD11O,1.700000X1.700000*%
%TD*%
%TA.AperFunction,ComponentPad*%
%ADD12R,1.700000X1.700000*%
%TD*%
%TA.AperFunction,SMDPad,CuDef*%
%ADD13R,1.213000X3.963000*%
%TD*%
%TA.AperFunction,SMDPad,CuDef*%
%ADD14R,1.213000X2.862999*%
%TD*%
%TA.AperFunction,SMDPad,CuDef*%
%ADD15R,1.213000X0.825000*%
%TD*%
%TA.AperFunction,SMDPad,CuDef*%
%ADD16R,1.038000X0.325000*%
%TD*%
%TA.AperFunction,SMDPad,CuDef*%
%ADD17R,0.625000X1.038000*%
%TD*%
%TA.AperFunction,SMDPad,CuDef*%
%ADD18R,1.213000X0.962000*%
%TD*%
%TA.AperFunction,ViaPad*%
%ADD19C,0.800000*%
%TD*%
%TA.AperFunction,Conductor*%
%ADD20C,0.250000*%
%TD*%
%TA.AperFunction,Conductor*%
%ADD21C,0.400000*%
%TD*%
%TA.AperFunction,Conductor*%
%ADD22C,0.254000*%
%TD*%
G04 APERTURE END LIST*
D10*
%TO.P,J1,5*%
%TO.N,/OUT*%
X68272660Y-91203780D03*
D11*
%TO.P,J1,6*%
%TO.N,/VBST*%
X80972660Y-91203780D03*
%TO.P,J1,4*%
%TO.N,/PV+*%
X68272660Y-93743780D03*
%TO.P,J1,7*%
%TO.N,/GND*%
X80972660Y-93743780D03*
%TO.P,J1,3*%
X68272660Y-96283780D03*
%TO.P,J1,8*%
X80972660Y-96283780D03*
%TO.P,J1,2*%
X68272660Y-98823780D03*
%TO.P,J1,9*%
X80972660Y-98823780D03*
D12*
%TO.P,J1,1*%
%TO.N,/VCC*%
X68272660Y-101363780D03*
D11*
%TO.P,J1,10*%
%TO.N,/GND*%
X80972660Y-101363780D03*
%TD*%
D13*
%TO.P,U0,5*%
%TO.N,/OUT*%
X76339700Y-97576640D03*
D14*
%TO.P,U0,4*%
%TO.N,/PV+*%
X73952700Y-98126640D03*
D15*
%TO.P,U0,3*%
%TO.N,/GND*%
X73952700Y-96007640D03*
D16*
%TO.P,U0,6*%
%TO.N,/VBST*%
X76427200Y-95157640D03*
%TO.P,U0,7*%
%TO.N,/GND*%
X76427200Y-94557640D03*
%TO.P,U0,2*%
X73865200Y-95157640D03*
%TO.P,U0,1*%
%TO.N,/VCC*%
X73865200Y-94557640D03*
D17*
%TO.P,U0,9*%
%TO.N,/GND*%
X75146700Y-93677140D03*
D18*
%TO.P,U0,8*%
X76340700Y-93639140D03*
%TO.P,U0,10*%
X73952700Y-93639140D03*
%TD*%
D19*
%TO.N,/GND*%
X72715120Y-99923600D03*
X71079360Y-96939100D03*
%TD*%
D20*
%TO.N,/VBST*%
X76427200Y-95157640D02*
X77018800Y-95157640D01*
D21*
%TO.N,/OUT*%
X61061600Y-101513640D02*
X61061600Y-94343220D01*
X72020680Y-104277160D02*
X63825120Y-104277160D01*
X64201040Y-91203780D02*
X68272660Y-91203780D01*
X61061600Y-94343220D02*
X64201040Y-91203780D01*
X63825120Y-104277160D02*
X61061600Y-101513640D01*
X76339700Y-99958140D02*
X72020680Y-104277160D01*
X76339700Y-97576640D02*
X76339700Y-99958140D01*
%TO.N,/PV+*%
X73952700Y-98126640D02*
X73952700Y-100441160D01*
X73952700Y-100441160D02*
X71358760Y-103035100D01*
X71358760Y-103035100D02*
X64267080Y-103035100D01*
X64267080Y-103035100D02*
X62263020Y-101031040D01*
X62263020Y-101031040D02*
X62263020Y-96347280D01*
X64866520Y-93743780D02*
X68272660Y-93743780D01*
X62263020Y-96347280D02*
X64866520Y-93743780D01*
%TO.N,/GND*%
X73952700Y-93639140D02*
X73952700Y-92404600D01*
X73952700Y-92404600D02*
X75407520Y-90949780D01*
X80349860Y-93639140D02*
X81069180Y-94358460D01*
X75146700Y-93677140D02*
X75146700Y-92719360D01*
X75146700Y-92719360D02*
X75705970Y-92160090D01*
X75407520Y-90949780D02*
X75407520Y-90949780D01*
X75705970Y-92160090D02*
X75705970Y-92160090D01*
X80158800Y-94557640D02*
X80972660Y-93743780D01*
X76427200Y-94557640D02*
X80158800Y-94557640D01*
X80868020Y-93639140D02*
X80972660Y-93743780D01*
X76340700Y-93639140D02*
X80868020Y-93639140D01*
X75705970Y-92160090D02*
X79388970Y-92160090D01*
X78178660Y-90949780D02*
X80112870Y-92883990D01*
X80112870Y-92883990D02*
X80972660Y-93743780D01*
X75407520Y-90949780D02*
X78178660Y-90949780D01*
X79388970Y-92160090D02*
X80112870Y-92883990D01*
X73865200Y-95157640D02*
X72858280Y-95157640D01*
X72858280Y-95157640D02*
X71848980Y-96166940D01*
X72715120Y-96238720D02*
X72715120Y-99923600D01*
X72946200Y-96007640D02*
X72715120Y-96238720D01*
X73952700Y-96007640D02*
X72946200Y-96007640D01*
X71848980Y-96166940D02*
X71848980Y-96169480D01*
X71848980Y-96169480D02*
X71079360Y-96939100D01*
%TO.N,/VBST*%
X77346200Y-95157640D02*
X78706980Y-96518420D01*
X76427200Y-95157640D02*
X77346200Y-95157640D01*
X78706980Y-96518420D02*
X78706980Y-101729540D01*
X78706980Y-101729540D02*
X80520540Y-103543100D01*
X80520540Y-103543100D02*
X84617560Y-103543100D01*
X84617560Y-103543100D02*
X88163400Y-99997260D01*
X88163400Y-99997260D02*
X88163400Y-94325440D01*
X85041740Y-91203780D02*
X80972660Y-91203780D01*
X88163400Y-94325440D02*
X85041740Y-91203780D01*
%TO.N,/VCC*%
X72053660Y-94557640D02*
X73865200Y-94557640D01*
X72053660Y-94557640D02*
X72053660Y-94588120D01*
X69522661Y-97119119D02*
X69522661Y-100047739D01*
X72053660Y-94588120D02*
X69522661Y-97119119D01*
X68272660Y-101297740D02*
X68272660Y-101363780D01*
X69522661Y-100047739D02*
X68272660Y-101297740D01*
%TD*%
D22*
%TO.N,/GND*%
G36*
X80269249Y-89887790D02*
G01*
X80026028Y-90050305D01*
X79819185Y-90257148D01*
X79656670Y-90500369D01*
X79544728Y-90770622D01*
X79487660Y-91057520D01*
X79487660Y-91350040D01*
X79544728Y-91636938D01*
X79656670Y-91907191D01*
X79819185Y-92150412D01*
X80026028Y-92357255D01*
X80208194Y-92478975D01*
X80091305Y-92548602D01*
X79875072Y-92743511D01*
X79701019Y-92976860D01*
X79575835Y-93239681D01*
X79531184Y-93386890D01*
X79652505Y-93616780D01*
X80845660Y-93616780D01*
X80845660Y-93596780D01*
X81099660Y-93596780D01*
X81099660Y-93616780D01*
X82292815Y-93616780D01*
X82414136Y-93386890D01*
X82369485Y-93239681D01*
X82244301Y-92976860D01*
X82070248Y-92743511D01*
X81854015Y-92548602D01*
X81737126Y-92478975D01*
X81919292Y-92357255D01*
X82126135Y-92150412D01*
X82200725Y-92038780D01*
X84695873Y-92038780D01*
X87328401Y-94671310D01*
X87328400Y-99651392D01*
X84271693Y-102708100D01*
X81603452Y-102708100D01*
X81603912Y-102707937D01*
X81854015Y-102558958D01*
X82070248Y-102364049D01*
X82244301Y-102130700D01*
X82369485Y-101867879D01*
X82414136Y-101720670D01*
X82292815Y-101490780D01*
X81099660Y-101490780D01*
X81099660Y-101510780D01*
X80845660Y-101510780D01*
X80845660Y-101490780D01*
X80825660Y-101490780D01*
X80825660Y-101236780D01*
X80845660Y-101236780D01*
X80845660Y-98950780D01*
X81099660Y-98950780D01*
X81099660Y-101236780D01*
X82292815Y-101236780D01*
X82414136Y-101006890D01*
X82369485Y-100859681D01*
X82244301Y-100596860D01*
X82070248Y-100363511D01*
X81854015Y-100168602D01*
X81728405Y-100093780D01*
X81854015Y-100018958D01*
X82070248Y-99824049D01*
X82244301Y-99590700D01*
X82369485Y-99327879D01*
X82414136Y-99180670D01*
X82292815Y-98950780D01*
X81099660Y-98950780D01*
X80845660Y-98950780D01*
X80825660Y-98950780D01*
X80825660Y-98696780D01*
X80845660Y-98696780D01*
X80845660Y-96410780D01*
X81099660Y-96410780D01*
X81099660Y-98696780D01*
X82292815Y-98696780D01*
X82414136Y-98466890D01*
X82369485Y-98319681D01*
X82244301Y-98056860D01*
X82070248Y-97823511D01*
X81854015Y-97628602D01*
X81728405Y-97553780D01*
X81854015Y-97478958D01*
X82070248Y-97284049D01*
X82244301Y-97050700D01*
X82369485Y-96787879D01*
X82414136Y-96640670D01*
X82292815Y-96410780D01*
X81099660Y-96410780D01*
X80845660Y-96410780D01*
X80825660Y-96410780D01*
X80825660Y-96156780D01*
X80845660Y-96156780D01*
X80845660Y-93870780D01*
X81099660Y-93870780D01*
X81099660Y-96156780D01*
X82292815Y-96156780D01*
X82414136Y-95926890D01*
X82369485Y-95779681D01*
X82244301Y-95516860D01*
X82070248Y-95283511D01*
X81854015Y-95088602D01*
X81728405Y-95013780D01*
X81854015Y-94938958D01*
X82070248Y-94744049D01*
X82244301Y-94510700D01*
X82369485Y-94247879D01*
X82414136Y-94100670D01*
X82292815Y-93870780D01*
X81099660Y-93870780D01*
X80845660Y-93870780D01*
X79652505Y-93870780D01*
X79531184Y-94100670D01*
X79575835Y-94247879D01*
X79701019Y-94510700D01*
X79875072Y-94744049D01*
X80091305Y-94938958D01*
X80216915Y-95013780D01*
X80091305Y-95088602D01*
X79875072Y-95283511D01*
X79701019Y-95516860D01*
X79575835Y-95779681D01*
X79531184Y-95926890D01*
X79652504Y-96156778D01*
X79487660Y-96156778D01*
X79487660Y-96215491D01*
X79482152Y-96197333D01*
X79404616Y-96052274D01*
X79345760Y-95980558D01*
X79326419Y-95956990D01*
X79326417Y-95956988D01*
X79300271Y-95925129D01*
X79268413Y-95898984D01*
X77965646Y-94596218D01*
X77939491Y-94564349D01*
X77812346Y-94460004D01*
X77667287Y-94382468D01*
X77580388Y-94356108D01*
X77569537Y-94258806D01*
X77569109Y-94257487D01*
X77573012Y-94244622D01*
X77585272Y-94120140D01*
X77582200Y-93924890D01*
X77423450Y-93766140D01*
X77046953Y-93766140D01*
X76934093Y-93757183D01*
X76712950Y-93760140D01*
X76706950Y-93766140D01*
X76467700Y-93766140D01*
X76467700Y-93786140D01*
X76213700Y-93786140D01*
X76213700Y-93766140D01*
X76147450Y-93766140D01*
X76141450Y-93760140D01*
X75920307Y-93757183D01*
X75807447Y-93766140D01*
X75257950Y-93766140D01*
X75146700Y-93877390D01*
X75035450Y-93766140D01*
X74476313Y-93766140D01*
X74384200Y-93757068D01*
X74102554Y-93757068D01*
X74028889Y-93734722D01*
X73906219Y-93722640D01*
X72094678Y-93722640D01*
X72053660Y-93718600D01*
X72012641Y-93722640D01*
X71889971Y-93734722D01*
X71732573Y-93782468D01*
X71587514Y-93860004D01*
X71460369Y-93964349D01*
X71356024Y-94091494D01*
X71340644Y-94120268D01*
X69672219Y-95788694D01*
X69669485Y-95779681D01*
X69544301Y-95516860D01*
X69370248Y-95283511D01*
X69154015Y-95088602D01*
X69037126Y-95018975D01*
X69219292Y-94897255D01*
X69426135Y-94690412D01*
X69588650Y-94447191D01*
X69700592Y-94176938D01*
X69757660Y-93890040D01*
X69757660Y-93597520D01*
X69700592Y-93310622D01*
X69637433Y-93158140D01*
X72708128Y-93158140D01*
X72711200Y-93353390D01*
X72869950Y-93512140D01*
X73825700Y-93512140D01*
X73825700Y-92681890D01*
X74079700Y-92681890D01*
X74079700Y-93512140D01*
X74319950Y-93512140D01*
X74357950Y-93550140D01*
X75019700Y-93550140D01*
X75019700Y-93512140D01*
X75035450Y-93512140D01*
X75146700Y-93400890D01*
X75257950Y-93512140D01*
X75273700Y-93512140D01*
X75273700Y-93550140D01*
X75935450Y-93550140D01*
X75973450Y-93512140D01*
X76213700Y-93512140D01*
X76213700Y-92681890D01*
X76467700Y-92681890D01*
X76467700Y-93512140D01*
X77423450Y-93512140D01*
X77582200Y-93353390D01*
X77585272Y-93158140D01*
X77573012Y-93033658D01*
X77536702Y-92913960D01*
X77477737Y-92803646D01*
X77398385Y-92706955D01*
X77301694Y-92627603D01*
X77191380Y-92568638D01*
X77071682Y-92532328D01*
X76947200Y-92520068D01*
X76626450Y-92523140D01*
X76467700Y-92681890D01*
X76213700Y-92681890D01*
X76054950Y-92523140D01*
X75734200Y-92520068D01*
X75609718Y-92532328D01*
X75596700Y-92536277D01*
X75583682Y-92532328D01*
X75459200Y-92520068D01*
X75432450Y-92523140D01*
X75273700Y-92681890D01*
X75273700Y-92718305D01*
X75203663Y-92803646D01*
X75146700Y-92910215D01*
X75089737Y-92803646D01*
X75019700Y-92718305D01*
X75019700Y-92681890D01*
X74860950Y-92523140D01*
X74834200Y-92520068D01*
X74709718Y-92532328D01*
X74696700Y-92536277D01*
X74683682Y-92532328D01*
X74559200Y-92520068D01*
X74238450Y-92523140D01*
X74079700Y-92681890D01*
X73825700Y-92681890D01*
X73666950Y-92523140D01*
X73346200Y-92520068D01*
X73221718Y-92532328D01*
X73102020Y-92568638D01*
X72991706Y-92627603D01*
X72895015Y-92706955D01*
X72815663Y-92803646D01*
X72756698Y-92913960D01*
X72720388Y-93033658D01*
X72708128Y-93158140D01*
X69637433Y-93158140D01*
X69588650Y-93040369D01*
X69426135Y-92797148D01*
X69219292Y-92590305D01*
X69044900Y-92473780D01*
X69219292Y-92357255D01*
X69426135Y-92150412D01*
X69588650Y-91907191D01*
X69700592Y-91636938D01*
X69757660Y-91350040D01*
X69757660Y-91057520D01*
X69700592Y-90770622D01*
X69588650Y-90500369D01*
X69426135Y-90257148D01*
X69219292Y-90050305D01*
X68976071Y-89887790D01*
X68828586Y-89826700D01*
X80416734Y-89826700D01*
X80269249Y-89887790D01*
G37*
X80269249Y-89887790D02*
X80026028Y-90050305D01*
X79819185Y-90257148D01*
X79656670Y-90500369D01*
X79544728Y-90770622D01*
X79487660Y-91057520D01*
X79487660Y-91350040D01*
X79544728Y-91636938D01*
X79656670Y-91907191D01*
X79819185Y-92150412D01*
X80026028Y-92357255D01*
X80208194Y-92478975D01*
X80091305Y-92548602D01*
X79875072Y-92743511D01*
X79701019Y-92976860D01*
X79575835Y-93239681D01*
X79531184Y-93386890D01*
X79652505Y-93616780D01*
X80845660Y-93616780D01*
X80845660Y-93596780D01*
X81099660Y-93596780D01*
X81099660Y-93616780D01*
X82292815Y-93616780D01*
X82414136Y-93386890D01*
X82369485Y-93239681D01*
X82244301Y-92976860D01*
X82070248Y-92743511D01*
X81854015Y-92548602D01*
X81737126Y-92478975D01*
X81919292Y-92357255D01*
X82126135Y-92150412D01*
X82200725Y-92038780D01*
X84695873Y-92038780D01*
X87328401Y-94671310D01*
X87328400Y-99651392D01*
X84271693Y-102708100D01*
X81603452Y-102708100D01*
X81603912Y-102707937D01*
X81854015Y-102558958D01*
X82070248Y-102364049D01*
X82244301Y-102130700D01*
X82369485Y-101867879D01*
X82414136Y-101720670D01*
X82292815Y-101490780D01*
X81099660Y-101490780D01*
X81099660Y-101510780D01*
X80845660Y-101510780D01*
X80845660Y-101490780D01*
X80825660Y-101490780D01*
X80825660Y-101236780D01*
X80845660Y-101236780D01*
X80845660Y-98950780D01*
X81099660Y-98950780D01*
X81099660Y-101236780D01*
X82292815Y-101236780D01*
X82414136Y-101006890D01*
X82369485Y-100859681D01*
X82244301Y-100596860D01*
X82070248Y-100363511D01*
X81854015Y-100168602D01*
X81728405Y-100093780D01*
X81854015Y-100018958D01*
X82070248Y-99824049D01*
X82244301Y-99590700D01*
X82369485Y-99327879D01*
X82414136Y-99180670D01*
X82292815Y-98950780D01*
X81099660Y-98950780D01*
X80845660Y-98950780D01*
X80825660Y-98950780D01*
X80825660Y-98696780D01*
X80845660Y-98696780D01*
X80845660Y-96410780D01*
X81099660Y-96410780D01*
X81099660Y-98696780D01*
X82292815Y-98696780D01*
X82414136Y-98466890D01*
X82369485Y-98319681D01*
X82244301Y-98056860D01*
X82070248Y-97823511D01*
X81854015Y-97628602D01*
X81728405Y-97553780D01*
X81854015Y-97478958D01*
X82070248Y-97284049D01*
X82244301Y-97050700D01*
X82369485Y-96787879D01*
X82414136Y-96640670D01*
X82292815Y-96410780D01*
X81099660Y-96410780D01*
X80845660Y-96410780D01*
X80825660Y-96410780D01*
X80825660Y-96156780D01*
X80845660Y-96156780D01*
X80845660Y-93870780D01*
X81099660Y-93870780D01*
X81099660Y-96156780D01*
X82292815Y-96156780D01*
X82414136Y-95926890D01*
X82369485Y-95779681D01*
X82244301Y-95516860D01*
X82070248Y-95283511D01*
X81854015Y-95088602D01*
X81728405Y-95013780D01*
X81854015Y-94938958D01*
X82070248Y-94744049D01*
X82244301Y-94510700D01*
X82369485Y-94247879D01*
X82414136Y-94100670D01*
X82292815Y-93870780D01*
X81099660Y-93870780D01*
X80845660Y-93870780D01*
X79652505Y-93870780D01*
X79531184Y-94100670D01*
X79575835Y-94247879D01*
X79701019Y-94510700D01*
X79875072Y-94744049D01*
X80091305Y-94938958D01*
X80216915Y-95013780D01*
X80091305Y-95088602D01*
X79875072Y-95283511D01*
X79701019Y-95516860D01*
X79575835Y-95779681D01*
X79531184Y-95926890D01*
X79652504Y-96156778D01*
X79487660Y-96156778D01*
X79487660Y-96215491D01*
X79482152Y-96197333D01*
X79404616Y-96052274D01*
X79345760Y-95980558D01*
X79326419Y-95956990D01*
X79326417Y-95956988D01*
X79300271Y-95925129D01*
X79268413Y-95898984D01*
X77965646Y-94596218D01*
X77939491Y-94564349D01*
X77812346Y-94460004D01*
X77667287Y-94382468D01*
X77580388Y-94356108D01*
X77569537Y-94258806D01*
X77569109Y-94257487D01*
X77573012Y-94244622D01*
X77585272Y-94120140D01*
X77582200Y-93924890D01*
X77423450Y-93766140D01*
X77046953Y-93766140D01*
X76934093Y-93757183D01*
X76712950Y-93760140D01*
X76706950Y-93766140D01*
X76467700Y-93766140D01*
X76467700Y-93786140D01*
X76213700Y-93786140D01*
X76213700Y-93766140D01*
X76147450Y-93766140D01*
X76141450Y-93760140D01*
X75920307Y-93757183D01*
X75807447Y-93766140D01*
X75257950Y-93766140D01*
X75146700Y-93877390D01*
X75035450Y-93766140D01*
X74476313Y-93766140D01*
X74384200Y-93757068D01*
X74102554Y-93757068D01*
X74028889Y-93734722D01*
X73906219Y-93722640D01*
X72094678Y-93722640D01*
X72053660Y-93718600D01*
X72012641Y-93722640D01*
X71889971Y-93734722D01*
X71732573Y-93782468D01*
X71587514Y-93860004D01*
X71460369Y-93964349D01*
X71356024Y-94091494D01*
X71340644Y-94120268D01*
X69672219Y-95788694D01*
X69669485Y-95779681D01*
X69544301Y-95516860D01*
X69370248Y-95283511D01*
X69154015Y-95088602D01*
X69037126Y-95018975D01*
X69219292Y-94897255D01*
X69426135Y-94690412D01*
X69588650Y-94447191D01*
X69700592Y-94176938D01*
X69757660Y-93890040D01*
X69757660Y-93597520D01*
X69700592Y-93310622D01*
X69637433Y-93158140D01*
X72708128Y-93158140D01*
X72711200Y-93353390D01*
X72869950Y-93512140D01*
X73825700Y-93512140D01*
X73825700Y-92681890D01*
X74079700Y-92681890D01*
X74079700Y-93512140D01*
X74319950Y-93512140D01*
X74357950Y-93550140D01*
X75019700Y-93550140D01*
X75019700Y-93512140D01*
X75035450Y-93512140D01*
X75146700Y-93400890D01*
X75257950Y-93512140D01*
X75273700Y-93512140D01*
X75273700Y-93550140D01*
X75935450Y-93550140D01*
X75973450Y-93512140D01*
X76213700Y-93512140D01*
X76213700Y-92681890D01*
X76467700Y-92681890D01*
X76467700Y-93512140D01*
X77423450Y-93512140D01*
X77582200Y-93353390D01*
X77585272Y-93158140D01*
X77573012Y-93033658D01*
X77536702Y-92913960D01*
X77477737Y-92803646D01*
X77398385Y-92706955D01*
X77301694Y-92627603D01*
X77191380Y-92568638D01*
X77071682Y-92532328D01*
X76947200Y-92520068D01*
X76626450Y-92523140D01*
X76467700Y-92681890D01*
X76213700Y-92681890D01*
X76054950Y-92523140D01*
X75734200Y-92520068D01*
X75609718Y-92532328D01*
X75596700Y-92536277D01*
X75583682Y-92532328D01*
X75459200Y-92520068D01*
X75432450Y-92523140D01*
X75273700Y-92681890D01*
X75273700Y-92718305D01*
X75203663Y-92803646D01*
X75146700Y-92910215D01*
X75089737Y-92803646D01*
X75019700Y-92718305D01*
X75019700Y-92681890D01*
X74860950Y-92523140D01*
X74834200Y-92520068D01*
X74709718Y-92532328D01*
X74696700Y-92536277D01*
X74683682Y-92532328D01*
X74559200Y-92520068D01*
X74238450Y-92523140D01*
X74079700Y-92681890D01*
X73825700Y-92681890D01*
X73666950Y-92523140D01*
X73346200Y-92520068D01*
X73221718Y-92532328D01*
X73102020Y-92568638D01*
X72991706Y-92627603D01*
X72895015Y-92706955D01*
X72815663Y-92803646D01*
X72756698Y-92913960D01*
X72720388Y-93033658D01*
X72708128Y-93158140D01*
X69637433Y-93158140D01*
X69588650Y-93040369D01*
X69426135Y-92797148D01*
X69219292Y-92590305D01*
X69044900Y-92473780D01*
X69219292Y-92357255D01*
X69426135Y-92150412D01*
X69588650Y-91907191D01*
X69700592Y-91636938D01*
X69757660Y-91350040D01*
X69757660Y-91057520D01*
X69700592Y-90770622D01*
X69588650Y-90500369D01*
X69426135Y-90257148D01*
X69219292Y-90050305D01*
X68976071Y-89887790D01*
X68828586Y-89826700D01*
X80416734Y-89826700D01*
X80269249Y-89887790D01*
G36*
X67119185Y-94690412D02*
G01*
X67326028Y-94897255D01*
X67508194Y-95018975D01*
X67391305Y-95088602D01*
X67175072Y-95283511D01*
X67001019Y-95516860D01*
X66875835Y-95779681D01*
X66831184Y-95926890D01*
X66952505Y-96156780D01*
X68145660Y-96156780D01*
X68145660Y-96136780D01*
X68399660Y-96136780D01*
X68399660Y-96156780D01*
X68419660Y-96156780D01*
X68419660Y-96410780D01*
X68399660Y-96410780D01*
X68399660Y-98696780D01*
X68419660Y-98696780D01*
X68419660Y-98950780D01*
X68399660Y-98950780D01*
X68399660Y-98970780D01*
X68145660Y-98970780D01*
X68145660Y-98950780D01*
X66952505Y-98950780D01*
X66831184Y-99180670D01*
X66875835Y-99327879D01*
X67001019Y-99590700D01*
X67175072Y-99824049D01*
X67259126Y-99899814D01*
X67178480Y-99924278D01*
X67068166Y-99983243D01*
X66971475Y-100062595D01*
X66892123Y-100159286D01*
X66833158Y-100269600D01*
X66796848Y-100389298D01*
X66784588Y-100513780D01*
X66784588Y-102200100D01*
X64612949Y-102200100D01*
X63098020Y-100685173D01*
X63098020Y-96693147D01*
X63150497Y-96640670D01*
X66831184Y-96640670D01*
X66875835Y-96787879D01*
X67001019Y-97050700D01*
X67175072Y-97284049D01*
X67391305Y-97478958D01*
X67516915Y-97553780D01*
X67391305Y-97628602D01*
X67175072Y-97823511D01*
X67001019Y-98056860D01*
X66875835Y-98319681D01*
X66831184Y-98466890D01*
X66952505Y-98696780D01*
X68145660Y-98696780D01*
X68145660Y-96410780D01*
X66952505Y-96410780D01*
X66831184Y-96640670D01*
X63150497Y-96640670D01*
X65212388Y-94578780D01*
X67044595Y-94578780D01*
X67119185Y-94690412D01*
G37*
X67119185Y-94690412D02*
X67326028Y-94897255D01*
X67508194Y-95018975D01*
X67391305Y-95088602D01*
X67175072Y-95283511D01*
X67001019Y-95516860D01*
X66875835Y-95779681D01*
X66831184Y-95926890D01*
X66952505Y-96156780D01*
X68145660Y-96156780D01*
X68145660Y-96136780D01*
X68399660Y-96136780D01*
X68399660Y-96156780D01*
X68419660Y-96156780D01*
X68419660Y-96410780D01*
X68399660Y-96410780D01*
X68399660Y-98696780D01*
X68419660Y-98696780D01*
X68419660Y-98950780D01*
X68399660Y-98950780D01*
X68399660Y-98970780D01*
X68145660Y-98970780D01*
X68145660Y-98950780D01*
X66952505Y-98950780D01*
X66831184Y-99180670D01*
X66875835Y-99327879D01*
X67001019Y-99590700D01*
X67175072Y-99824049D01*
X67259126Y-99899814D01*
X67178480Y-99924278D01*
X67068166Y-99983243D01*
X66971475Y-100062595D01*
X66892123Y-100159286D01*
X66833158Y-100269600D01*
X66796848Y-100389298D01*
X66784588Y-100513780D01*
X66784588Y-102200100D01*
X64612949Y-102200100D01*
X63098020Y-100685173D01*
X63098020Y-96693147D01*
X63150497Y-96640670D01*
X66831184Y-96640670D01*
X66875835Y-96787879D01*
X67001019Y-97050700D01*
X67175072Y-97284049D01*
X67391305Y-97478958D01*
X67516915Y-97553780D01*
X67391305Y-97628602D01*
X67175072Y-97823511D01*
X67001019Y-98056860D01*
X66875835Y-98319681D01*
X66831184Y-98466890D01*
X66952505Y-98696780D01*
X68145660Y-98696780D01*
X68145660Y-96410780D01*
X66952505Y-96410780D01*
X66831184Y-96640670D01*
X63150497Y-96640670D01*
X65212388Y-94578780D01*
X67044595Y-94578780D01*
X67119185Y-94690412D01*
G36*
X72722863Y-95456474D02*
G01*
X72723807Y-95459386D01*
X72720388Y-95470658D01*
X72708128Y-95595140D01*
X72711200Y-95721890D01*
X72869950Y-95880640D01*
X73047554Y-95880640D01*
X73113250Y-95914169D01*
X73233615Y-95948201D01*
X73358307Y-95958097D01*
X73579450Y-95955140D01*
X73653950Y-95880640D01*
X73825700Y-95880640D01*
X73825700Y-95860640D01*
X74056450Y-95860640D01*
X74099700Y-95903890D01*
X74099700Y-96057069D01*
X73346200Y-96057069D01*
X73221718Y-96069329D01*
X73102020Y-96105639D01*
X73047764Y-96134640D01*
X72869950Y-96134640D01*
X72711200Y-96293390D01*
X72708128Y-96420140D01*
X72720388Y-96544622D01*
X72724337Y-96557640D01*
X72720388Y-96570659D01*
X72708128Y-96695141D01*
X72708128Y-99558139D01*
X72720388Y-99682621D01*
X72756698Y-99802319D01*
X72815663Y-99912633D01*
X72895015Y-100009324D01*
X72991706Y-100088676D01*
X73078124Y-100134868D01*
X71012893Y-102200100D01*
X69760732Y-102200100D01*
X69760732Y-100990536D01*
X70084087Y-100667181D01*
X70115952Y-100641030D01*
X70220297Y-100513885D01*
X70297833Y-100368826D01*
X70345579Y-100211428D01*
X70357661Y-100088758D01*
X70357661Y-100088748D01*
X70361700Y-100047740D01*
X70357661Y-100006732D01*
X70357661Y-97464986D01*
X72430008Y-95392640D01*
X72715744Y-95392640D01*
X72722863Y-95456474D01*
G37*
X72722863Y-95456474D02*
X72723807Y-95459386D01*
X72720388Y-95470658D01*
X72708128Y-95595140D01*
X72711200Y-95721890D01*
X72869950Y-95880640D01*
X73047554Y-95880640D01*
X73113250Y-95914169D01*
X73233615Y-95948201D01*
X73358307Y-95958097D01*
X73579450Y-95955140D01*
X73653950Y-95880640D01*
X73825700Y-95880640D01*
X73825700Y-95860640D01*
X74056450Y-95860640D01*
X74099700Y-95903890D01*
X74099700Y-96057069D01*
X73346200Y-96057069D01*
X73221718Y-96069329D01*
X73102020Y-96105639D01*
X73047764Y-96134640D01*
X72869950Y-96134640D01*
X72711200Y-96293390D01*
X72708128Y-96420140D01*
X72720388Y-96544622D01*
X72724337Y-96557640D01*
X72720388Y-96570659D01*
X72708128Y-96695141D01*
X72708128Y-99558139D01*
X72720388Y-99682621D01*
X72756698Y-99802319D01*
X72815663Y-99912633D01*
X72895015Y-100009324D01*
X72991706Y-100088676D01*
X73078124Y-100134868D01*
X71012893Y-102200100D01*
X69760732Y-102200100D01*
X69760732Y-100990536D01*
X70084087Y-100667181D01*
X70115952Y-100641030D01*
X70220297Y-100513885D01*
X70297833Y-100368826D01*
X70345579Y-100211428D01*
X70357661Y-100088758D01*
X70357661Y-100088748D01*
X70361700Y-100047740D01*
X70357661Y-100006732D01*
X70357661Y-97464986D01*
X72430008Y-95392640D01*
X72715744Y-95392640D01*
X72722863Y-95456474D01*
%TD*%
M02*
