%TF.GenerationSoftware,KiCad,Pcbnew,(5.1.10)-1*%
%TF.CreationDate,2021-11-11T19:08:29-05:00*%
%TF.ProjectId,MPPT Chip,4d505054-2043-4686-9970-2e6b69636164,v01*%
%TF.SameCoordinates,Original*%
%TF.FileFunction,Copper,L2,Bot*%
%TF.FilePolarity,Positive*%
%FSLAX46Y46*%
G04 Gerber Fmt 4.6, Leading zero omitted, Abs format (unit mm)*
G04 Created by KiCad (PCBNEW (5.1.10)-1) date 2021-11-11 19:08:29*
%MOMM*%
%LPD*%
G01*
G04 APERTURE LIST*
%TA.AperFunction,SMDPad,CuDef*%
%ADD10R,3.500000X0.600000*%
%TD*%
%TA.AperFunction,ViaPad*%
%ADD11C,0.800000*%
%TD*%
%TA.AperFunction,Conductor*%
%ADD12C,0.250000*%
%TD*%
%TA.AperFunction,Conductor*%
%ADD13C,0.254000*%
%TD*%
%TA.AperFunction,Conductor*%
%ADD14C,0.100000*%
%TD*%
G04 APERTURE END LIST*
D10*
%TO.P,J1,1*%
%TO.N,Net-(J1-Pad1)*%
X69250000Y-100880000D03*
%TO.P,J1,10*%
%TO.N,Net-(J1-Pad10)*%
X81750000Y-100880000D03*
%TO.P,J1,9*%
%TO.N,Net-(J1-Pad9)*%
X81750000Y-99610000D03*
%TO.P,J1,2*%
%TO.N,Net-(J1-Pad2)*%
X69250000Y-99610000D03*
%TO.P,J1,3*%
%TO.N,GND*%
X69250000Y-98340000D03*
%TO.P,J1,4*%
X69250000Y-97070000D03*
%TO.P,J1,5*%
%TO.N,Net-(J1-Pad5)*%
X69250000Y-95800000D03*
%TO.P,J1,8*%
%TO.N,Net-(J1-Pad8)*%
X81750000Y-98340000D03*
%TO.P,J1,7*%
%TO.N,GND*%
X81750000Y-97070000D03*
%TO.P,J1,6*%
%TO.N,Net-(J1-Pad6)*%
X81750000Y-95800000D03*
%TD*%
D11*
%TO.N,Net-(J1-Pad1)*%
X63000000Y-99000000D03*
%TO.N,Net-(J1-Pad10)*%
X78500000Y-91500000D03*
%TO.N,Net-(J1-Pad9)*%
X80500000Y-92500000D03*
%TO.N,Net-(J1-Pad2)*%
X64500000Y-98000000D03*
%TO.N,GND*%
X66000000Y-98000000D03*
X72500000Y-99500000D03*
X84500000Y-95000000D03*
%TO.N,Net-(J1-Pad5)*%
X63500000Y-96000000D03*
%TO.N,Net-(J1-Pad8)*%
X83500000Y-93500000D03*
%TO.N,Net-(J1-Pad6)*%
X79000000Y-97000000D03*
%TD*%
D12*
%TO.N,Net-(J1-Pad1)*%
X63000000Y-99000000D02*
X63000000Y-100500000D01*
X63380000Y-100880000D02*
X69250000Y-100880000D01*
X63000000Y-100500000D02*
X63380000Y-100880000D01*
%TO.N,Net-(J1-Pad10)*%
X78500000Y-91500000D02*
X84500000Y-91500000D01*
X84500000Y-91500000D02*
X87000000Y-94000000D01*
X87000000Y-94000000D02*
X87000000Y-98500000D01*
X84620000Y-100880000D02*
X81750000Y-100880000D01*
X87000000Y-98500000D02*
X84620000Y-100880000D01*
%TO.N,Net-(J1-Pad9)*%
X80500000Y-92500000D02*
X84500000Y-92500000D01*
X84500000Y-92500000D02*
X86500000Y-94500000D01*
X86500000Y-97636410D02*
X84636410Y-99500000D01*
X86500000Y-94500000D02*
X86500000Y-97636410D01*
X81860000Y-99500000D02*
X81750000Y-99610000D01*
X84636410Y-99500000D02*
X81860000Y-99500000D01*
%TO.N,Net-(J1-Pad2)*%
X65110000Y-99610000D02*
X69250000Y-99610000D01*
X64500000Y-99000000D02*
X65110000Y-99610000D01*
X64500000Y-98000000D02*
X64500000Y-99000000D01*
%TO.N,GND*%
X66000000Y-98000000D02*
X66500000Y-98500000D01*
X69090000Y-98500000D02*
X69250000Y-98340000D01*
X66500000Y-98500000D02*
X69090000Y-98500000D01*
X72500000Y-99500000D02*
X72000000Y-99000000D01*
X72000000Y-99000000D02*
X72000000Y-98000000D01*
X71070000Y-97070000D02*
X69250000Y-97070000D01*
X72000000Y-98000000D02*
X71070000Y-97070000D01*
X84500000Y-95000000D02*
X85000000Y-95500000D01*
X85000000Y-95500000D02*
X85000000Y-96000000D01*
X83930000Y-97070000D02*
X81750000Y-97070000D01*
X85000000Y-96000000D02*
X83930000Y-97070000D01*
%TO.N,Net-(J1-Pad5)*%
X69050000Y-96000000D02*
X69250000Y-95800000D01*
X63500000Y-96000000D02*
X69050000Y-96000000D01*
%TO.N,Net-(J1-Pad8)*%
X84073002Y-93500000D02*
X86000000Y-95426998D01*
X83500000Y-93500000D02*
X84073002Y-93500000D01*
X86000000Y-95426998D02*
X86000000Y-97500000D01*
X85160000Y-98340000D02*
X81750000Y-98340000D01*
X86000000Y-97500000D02*
X85160000Y-98340000D01*
%TO.N,Net-(J1-Pad6)*%
X80200000Y-95800000D02*
X81750000Y-95800000D01*
X79000000Y-97000000D02*
X80200000Y-95800000D01*
%TD*%
D13*
%TO.N,GND*%
X77840226Y-90696063D02*
X77696063Y-90840226D01*
X77582795Y-91009744D01*
X77504774Y-91198102D01*
X77465000Y-91398061D01*
X77465000Y-91601939D01*
X77504774Y-91801898D01*
X77582795Y-91990256D01*
X77696063Y-92159774D01*
X77840226Y-92303937D01*
X78009744Y-92417205D01*
X78198102Y-92495226D01*
X78398061Y-92535000D01*
X78601939Y-92535000D01*
X78801898Y-92495226D01*
X78990256Y-92417205D01*
X79159774Y-92303937D01*
X79203711Y-92260000D01*
X79492462Y-92260000D01*
X79465000Y-92398061D01*
X79465000Y-92601939D01*
X79504774Y-92801898D01*
X79582795Y-92990256D01*
X79696063Y-93159774D01*
X79840226Y-93303937D01*
X80009744Y-93417205D01*
X80198102Y-93495226D01*
X80398061Y-93535000D01*
X80601939Y-93535000D01*
X80801898Y-93495226D01*
X80990256Y-93417205D01*
X81159774Y-93303937D01*
X81203711Y-93260000D01*
X82492462Y-93260000D01*
X82465000Y-93398061D01*
X82465000Y-93601939D01*
X82504774Y-93801898D01*
X82582795Y-93990256D01*
X82696063Y-94159774D01*
X82840226Y-94303937D01*
X83009744Y-94417205D01*
X83198102Y-94495226D01*
X83398061Y-94535000D01*
X83601939Y-94535000D01*
X83801898Y-94495226D01*
X83937329Y-94439128D01*
X85240000Y-95741800D01*
X85240001Y-97185197D01*
X84845198Y-97580000D01*
X84099870Y-97580000D01*
X84125812Y-97494482D01*
X84138072Y-97370000D01*
X84135000Y-97355750D01*
X83976250Y-97197000D01*
X81877000Y-97197000D01*
X81877000Y-97217000D01*
X81623000Y-97217000D01*
X81623000Y-97197000D01*
X81603000Y-97197000D01*
X81603000Y-96943000D01*
X81623000Y-96943000D01*
X81623000Y-96923000D01*
X81877000Y-96923000D01*
X81877000Y-96943000D01*
X83976250Y-96943000D01*
X84135000Y-96784250D01*
X84138072Y-96770000D01*
X84125812Y-96645518D01*
X84089502Y-96525820D01*
X84040957Y-96435000D01*
X84089502Y-96344180D01*
X84125812Y-96224482D01*
X84138072Y-96100000D01*
X84138072Y-95500000D01*
X84125812Y-95375518D01*
X84089502Y-95255820D01*
X84030537Y-95145506D01*
X83951185Y-95048815D01*
X83854494Y-94969463D01*
X83744180Y-94910498D01*
X83624482Y-94874188D01*
X83500000Y-94861928D01*
X80000000Y-94861928D01*
X79875518Y-94874188D01*
X79755820Y-94910498D01*
X79645506Y-94969463D01*
X79548815Y-95048815D01*
X79469463Y-95145506D01*
X79410498Y-95255820D01*
X79374188Y-95375518D01*
X79361928Y-95500000D01*
X79361928Y-95563270D01*
X78960199Y-95965000D01*
X78898061Y-95965000D01*
X78698102Y-96004774D01*
X78509744Y-96082795D01*
X78340226Y-96196063D01*
X78196063Y-96340226D01*
X78082795Y-96509744D01*
X78004774Y-96698102D01*
X77965000Y-96898061D01*
X77965000Y-97101939D01*
X78004774Y-97301898D01*
X78082795Y-97490256D01*
X78196063Y-97659774D01*
X78340226Y-97803937D01*
X78509744Y-97917205D01*
X78698102Y-97995226D01*
X78898061Y-98035000D01*
X79101939Y-98035000D01*
X79301898Y-97995226D01*
X79369078Y-97967399D01*
X79361928Y-98040000D01*
X79361928Y-98640000D01*
X79374188Y-98764482D01*
X79410498Y-98884180D01*
X79459043Y-98975000D01*
X79410498Y-99065820D01*
X79374188Y-99185518D01*
X79361928Y-99310000D01*
X79361928Y-99910000D01*
X79374188Y-100034482D01*
X79410498Y-100154180D01*
X79459043Y-100245000D01*
X79410498Y-100335820D01*
X79374188Y-100455518D01*
X79361928Y-100580000D01*
X79361928Y-101180000D01*
X79374188Y-101304482D01*
X79410498Y-101424180D01*
X79469463Y-101534494D01*
X79548815Y-101631185D01*
X79645506Y-101710537D01*
X79755820Y-101769502D01*
X79875518Y-101805812D01*
X80000000Y-101818072D01*
X83500000Y-101818072D01*
X83624482Y-101805812D01*
X83744180Y-101769502D01*
X83854494Y-101710537D01*
X83940444Y-101640000D01*
X84582678Y-101640000D01*
X84620000Y-101643676D01*
X84657322Y-101640000D01*
X84657333Y-101640000D01*
X84768986Y-101629003D01*
X84912247Y-101585546D01*
X85044276Y-101514974D01*
X85160001Y-101420001D01*
X85183804Y-101390997D01*
X87511003Y-99063799D01*
X87540001Y-99040001D01*
X87634974Y-98924276D01*
X87705546Y-98792247D01*
X87749003Y-98648986D01*
X87760000Y-98537333D01*
X87760000Y-98537324D01*
X87763676Y-98500001D01*
X87760000Y-98462678D01*
X87760000Y-94037323D01*
X87763676Y-94000000D01*
X87760000Y-93962677D01*
X87760000Y-93962667D01*
X87749003Y-93851014D01*
X87705546Y-93707753D01*
X87674134Y-93648986D01*
X87634974Y-93575723D01*
X87563799Y-93488997D01*
X87540001Y-93459999D01*
X87511004Y-93436202D01*
X85063804Y-90989003D01*
X85040001Y-90959999D01*
X84924276Y-90865026D01*
X84792247Y-90794454D01*
X84648986Y-90750997D01*
X84537333Y-90740000D01*
X84537322Y-90740000D01*
X84500000Y-90736324D01*
X84462678Y-90740000D01*
X79203711Y-90740000D01*
X79159774Y-90696063D01*
X79069135Y-90635500D01*
X89364500Y-90635500D01*
X89364501Y-104364500D01*
X60635500Y-104364500D01*
X60635500Y-98898061D01*
X61965000Y-98898061D01*
X61965000Y-99101939D01*
X62004774Y-99301898D01*
X62082795Y-99490256D01*
X62196063Y-99659774D01*
X62240000Y-99703711D01*
X62240001Y-100462668D01*
X62236324Y-100500000D01*
X62250998Y-100648985D01*
X62294454Y-100792246D01*
X62365026Y-100924276D01*
X62436201Y-101011002D01*
X62460000Y-101040001D01*
X62488998Y-101063799D01*
X62816196Y-101390997D01*
X62839999Y-101420001D01*
X62955724Y-101514974D01*
X63087753Y-101585546D01*
X63231014Y-101629003D01*
X63342667Y-101640000D01*
X63342676Y-101640000D01*
X63379999Y-101643676D01*
X63417322Y-101640000D01*
X67059556Y-101640000D01*
X67145506Y-101710537D01*
X67255820Y-101769502D01*
X67375518Y-101805812D01*
X67500000Y-101818072D01*
X71000000Y-101818072D01*
X71124482Y-101805812D01*
X71244180Y-101769502D01*
X71354494Y-101710537D01*
X71451185Y-101631185D01*
X71530537Y-101534494D01*
X71589502Y-101424180D01*
X71625812Y-101304482D01*
X71638072Y-101180000D01*
X71638072Y-100580000D01*
X71625812Y-100455518D01*
X71589502Y-100335820D01*
X71540957Y-100245000D01*
X71589502Y-100154180D01*
X71625812Y-100034482D01*
X71638072Y-99910000D01*
X71638072Y-99310000D01*
X71625812Y-99185518D01*
X71589502Y-99065820D01*
X71540957Y-98975000D01*
X71589502Y-98884180D01*
X71625812Y-98764482D01*
X71638072Y-98640000D01*
X71635000Y-98625750D01*
X71476250Y-98467000D01*
X69377000Y-98467000D01*
X69377000Y-98487000D01*
X69123000Y-98487000D01*
X69123000Y-98467000D01*
X67023750Y-98467000D01*
X66865000Y-98625750D01*
X66861928Y-98640000D01*
X66874188Y-98764482D01*
X66900130Y-98850000D01*
X65424802Y-98850000D01*
X65269256Y-98694455D01*
X65303937Y-98659774D01*
X65417205Y-98490256D01*
X65495226Y-98301898D01*
X65535000Y-98101939D01*
X65535000Y-97898061D01*
X65495226Y-97698102D01*
X65417205Y-97509744D01*
X65323832Y-97370000D01*
X66861928Y-97370000D01*
X66874188Y-97494482D01*
X66910498Y-97614180D01*
X66959043Y-97705000D01*
X66910498Y-97795820D01*
X66874188Y-97915518D01*
X66861928Y-98040000D01*
X66865000Y-98054250D01*
X67023750Y-98213000D01*
X69123000Y-98213000D01*
X69123000Y-97197000D01*
X69377000Y-97197000D01*
X69377000Y-98213000D01*
X71476250Y-98213000D01*
X71635000Y-98054250D01*
X71638072Y-98040000D01*
X71625812Y-97915518D01*
X71589502Y-97795820D01*
X71540957Y-97705000D01*
X71589502Y-97614180D01*
X71625812Y-97494482D01*
X71638072Y-97370000D01*
X71635000Y-97355750D01*
X71476250Y-97197000D01*
X69377000Y-97197000D01*
X69123000Y-97197000D01*
X67023750Y-97197000D01*
X66865000Y-97355750D01*
X66861928Y-97370000D01*
X65323832Y-97370000D01*
X65303937Y-97340226D01*
X65159774Y-97196063D01*
X64990256Y-97082795D01*
X64801898Y-97004774D01*
X64601939Y-96965000D01*
X64398061Y-96965000D01*
X64198102Y-97004774D01*
X64009744Y-97082795D01*
X63840226Y-97196063D01*
X63696063Y-97340226D01*
X63582795Y-97509744D01*
X63504774Y-97698102D01*
X63465000Y-97898061D01*
X63465000Y-98072334D01*
X63301898Y-98004774D01*
X63101939Y-97965000D01*
X62898061Y-97965000D01*
X62698102Y-98004774D01*
X62509744Y-98082795D01*
X62340226Y-98196063D01*
X62196063Y-98340226D01*
X62082795Y-98509744D01*
X62004774Y-98698102D01*
X61965000Y-98898061D01*
X60635500Y-98898061D01*
X60635500Y-95898061D01*
X62465000Y-95898061D01*
X62465000Y-96101939D01*
X62504774Y-96301898D01*
X62582795Y-96490256D01*
X62696063Y-96659774D01*
X62840226Y-96803937D01*
X63009744Y-96917205D01*
X63198102Y-96995226D01*
X63398061Y-97035000D01*
X63601939Y-97035000D01*
X63801898Y-96995226D01*
X63990256Y-96917205D01*
X64159774Y-96803937D01*
X64203711Y-96760000D01*
X66862913Y-96760000D01*
X66861928Y-96770000D01*
X66865000Y-96784250D01*
X67023750Y-96943000D01*
X69123000Y-96943000D01*
X69123000Y-96923000D01*
X69377000Y-96923000D01*
X69377000Y-96943000D01*
X71476250Y-96943000D01*
X71635000Y-96784250D01*
X71638072Y-96770000D01*
X71625812Y-96645518D01*
X71589502Y-96525820D01*
X71540957Y-96435000D01*
X71589502Y-96344180D01*
X71625812Y-96224482D01*
X71638072Y-96100000D01*
X71638072Y-95500000D01*
X71625812Y-95375518D01*
X71589502Y-95255820D01*
X71530537Y-95145506D01*
X71451185Y-95048815D01*
X71354494Y-94969463D01*
X71244180Y-94910498D01*
X71124482Y-94874188D01*
X71000000Y-94861928D01*
X67500000Y-94861928D01*
X67375518Y-94874188D01*
X67255820Y-94910498D01*
X67145506Y-94969463D01*
X67048815Y-95048815D01*
X66969463Y-95145506D01*
X66918954Y-95240000D01*
X64203711Y-95240000D01*
X64159774Y-95196063D01*
X63990256Y-95082795D01*
X63801898Y-95004774D01*
X63601939Y-94965000D01*
X63398061Y-94965000D01*
X63198102Y-95004774D01*
X63009744Y-95082795D01*
X62840226Y-95196063D01*
X62696063Y-95340226D01*
X62582795Y-95509744D01*
X62504774Y-95698102D01*
X62465000Y-95898061D01*
X60635500Y-95898061D01*
X60635500Y-90635500D01*
X77930865Y-90635500D01*
X77840226Y-90696063D01*
%TA.AperFunction,Conductor*%
D14*
G36*
X77840226Y-90696063D02*
G01*
X77696063Y-90840226D01*
X77582795Y-91009744D01*
X77504774Y-91198102D01*
X77465000Y-91398061D01*
X77465000Y-91601939D01*
X77504774Y-91801898D01*
X77582795Y-91990256D01*
X77696063Y-92159774D01*
X77840226Y-92303937D01*
X78009744Y-92417205D01*
X78198102Y-92495226D01*
X78398061Y-92535000D01*
X78601939Y-92535000D01*
X78801898Y-92495226D01*
X78990256Y-92417205D01*
X79159774Y-92303937D01*
X79203711Y-92260000D01*
X79492462Y-92260000D01*
X79465000Y-92398061D01*
X79465000Y-92601939D01*
X79504774Y-92801898D01*
X79582795Y-92990256D01*
X79696063Y-93159774D01*
X79840226Y-93303937D01*
X80009744Y-93417205D01*
X80198102Y-93495226D01*
X80398061Y-93535000D01*
X80601939Y-93535000D01*
X80801898Y-93495226D01*
X80990256Y-93417205D01*
X81159774Y-93303937D01*
X81203711Y-93260000D01*
X82492462Y-93260000D01*
X82465000Y-93398061D01*
X82465000Y-93601939D01*
X82504774Y-93801898D01*
X82582795Y-93990256D01*
X82696063Y-94159774D01*
X82840226Y-94303937D01*
X83009744Y-94417205D01*
X83198102Y-94495226D01*
X83398061Y-94535000D01*
X83601939Y-94535000D01*
X83801898Y-94495226D01*
X83937329Y-94439128D01*
X85240000Y-95741800D01*
X85240001Y-97185197D01*
X84845198Y-97580000D01*
X84099870Y-97580000D01*
X84125812Y-97494482D01*
X84138072Y-97370000D01*
X84135000Y-97355750D01*
X83976250Y-97197000D01*
X81877000Y-97197000D01*
X81877000Y-97217000D01*
X81623000Y-97217000D01*
X81623000Y-97197000D01*
X81603000Y-97197000D01*
X81603000Y-96943000D01*
X81623000Y-96943000D01*
X81623000Y-96923000D01*
X81877000Y-96923000D01*
X81877000Y-96943000D01*
X83976250Y-96943000D01*
X84135000Y-96784250D01*
X84138072Y-96770000D01*
X84125812Y-96645518D01*
X84089502Y-96525820D01*
X84040957Y-96435000D01*
X84089502Y-96344180D01*
X84125812Y-96224482D01*
X84138072Y-96100000D01*
X84138072Y-95500000D01*
X84125812Y-95375518D01*
X84089502Y-95255820D01*
X84030537Y-95145506D01*
X83951185Y-95048815D01*
X83854494Y-94969463D01*
X83744180Y-94910498D01*
X83624482Y-94874188D01*
X83500000Y-94861928D01*
X80000000Y-94861928D01*
X79875518Y-94874188D01*
X79755820Y-94910498D01*
X79645506Y-94969463D01*
X79548815Y-95048815D01*
X79469463Y-95145506D01*
X79410498Y-95255820D01*
X79374188Y-95375518D01*
X79361928Y-95500000D01*
X79361928Y-95563270D01*
X78960199Y-95965000D01*
X78898061Y-95965000D01*
X78698102Y-96004774D01*
X78509744Y-96082795D01*
X78340226Y-96196063D01*
X78196063Y-96340226D01*
X78082795Y-96509744D01*
X78004774Y-96698102D01*
X77965000Y-96898061D01*
X77965000Y-97101939D01*
X78004774Y-97301898D01*
X78082795Y-97490256D01*
X78196063Y-97659774D01*
X78340226Y-97803937D01*
X78509744Y-97917205D01*
X78698102Y-97995226D01*
X78898061Y-98035000D01*
X79101939Y-98035000D01*
X79301898Y-97995226D01*
X79369078Y-97967399D01*
X79361928Y-98040000D01*
X79361928Y-98640000D01*
X79374188Y-98764482D01*
X79410498Y-98884180D01*
X79459043Y-98975000D01*
X79410498Y-99065820D01*
X79374188Y-99185518D01*
X79361928Y-99310000D01*
X79361928Y-99910000D01*
X79374188Y-100034482D01*
X79410498Y-100154180D01*
X79459043Y-100245000D01*
X79410498Y-100335820D01*
X79374188Y-100455518D01*
X79361928Y-100580000D01*
X79361928Y-101180000D01*
X79374188Y-101304482D01*
X79410498Y-101424180D01*
X79469463Y-101534494D01*
X79548815Y-101631185D01*
X79645506Y-101710537D01*
X79755820Y-101769502D01*
X79875518Y-101805812D01*
X80000000Y-101818072D01*
X83500000Y-101818072D01*
X83624482Y-101805812D01*
X83744180Y-101769502D01*
X83854494Y-101710537D01*
X83940444Y-101640000D01*
X84582678Y-101640000D01*
X84620000Y-101643676D01*
X84657322Y-101640000D01*
X84657333Y-101640000D01*
X84768986Y-101629003D01*
X84912247Y-101585546D01*
X85044276Y-101514974D01*
X85160001Y-101420001D01*
X85183804Y-101390997D01*
X87511003Y-99063799D01*
X87540001Y-99040001D01*
X87634974Y-98924276D01*
X87705546Y-98792247D01*
X87749003Y-98648986D01*
X87760000Y-98537333D01*
X87760000Y-98537324D01*
X87763676Y-98500001D01*
X87760000Y-98462678D01*
X87760000Y-94037323D01*
X87763676Y-94000000D01*
X87760000Y-93962677D01*
X87760000Y-93962667D01*
X87749003Y-93851014D01*
X87705546Y-93707753D01*
X87674134Y-93648986D01*
X87634974Y-93575723D01*
X87563799Y-93488997D01*
X87540001Y-93459999D01*
X87511004Y-93436202D01*
X85063804Y-90989003D01*
X85040001Y-90959999D01*
X84924276Y-90865026D01*
X84792247Y-90794454D01*
X84648986Y-90750997D01*
X84537333Y-90740000D01*
X84537322Y-90740000D01*
X84500000Y-90736324D01*
X84462678Y-90740000D01*
X79203711Y-90740000D01*
X79159774Y-90696063D01*
X79069135Y-90635500D01*
X89364500Y-90635500D01*
X89364501Y-104364500D01*
X60635500Y-104364500D01*
X60635500Y-98898061D01*
X61965000Y-98898061D01*
X61965000Y-99101939D01*
X62004774Y-99301898D01*
X62082795Y-99490256D01*
X62196063Y-99659774D01*
X62240000Y-99703711D01*
X62240001Y-100462668D01*
X62236324Y-100500000D01*
X62250998Y-100648985D01*
X62294454Y-100792246D01*
X62365026Y-100924276D01*
X62436201Y-101011002D01*
X62460000Y-101040001D01*
X62488998Y-101063799D01*
X62816196Y-101390997D01*
X62839999Y-101420001D01*
X62955724Y-101514974D01*
X63087753Y-101585546D01*
X63231014Y-101629003D01*
X63342667Y-101640000D01*
X63342676Y-101640000D01*
X63379999Y-101643676D01*
X63417322Y-101640000D01*
X67059556Y-101640000D01*
X67145506Y-101710537D01*
X67255820Y-101769502D01*
X67375518Y-101805812D01*
X67500000Y-101818072D01*
X71000000Y-101818072D01*
X71124482Y-101805812D01*
X71244180Y-101769502D01*
X71354494Y-101710537D01*
X71451185Y-101631185D01*
X71530537Y-101534494D01*
X71589502Y-101424180D01*
X71625812Y-101304482D01*
X71638072Y-101180000D01*
X71638072Y-100580000D01*
X71625812Y-100455518D01*
X71589502Y-100335820D01*
X71540957Y-100245000D01*
X71589502Y-100154180D01*
X71625812Y-100034482D01*
X71638072Y-99910000D01*
X71638072Y-99310000D01*
X71625812Y-99185518D01*
X71589502Y-99065820D01*
X71540957Y-98975000D01*
X71589502Y-98884180D01*
X71625812Y-98764482D01*
X71638072Y-98640000D01*
X71635000Y-98625750D01*
X71476250Y-98467000D01*
X69377000Y-98467000D01*
X69377000Y-98487000D01*
X69123000Y-98487000D01*
X69123000Y-98467000D01*
X67023750Y-98467000D01*
X66865000Y-98625750D01*
X66861928Y-98640000D01*
X66874188Y-98764482D01*
X66900130Y-98850000D01*
X65424802Y-98850000D01*
X65269256Y-98694455D01*
X65303937Y-98659774D01*
X65417205Y-98490256D01*
X65495226Y-98301898D01*
X65535000Y-98101939D01*
X65535000Y-97898061D01*
X65495226Y-97698102D01*
X65417205Y-97509744D01*
X65323832Y-97370000D01*
X66861928Y-97370000D01*
X66874188Y-97494482D01*
X66910498Y-97614180D01*
X66959043Y-97705000D01*
X66910498Y-97795820D01*
X66874188Y-97915518D01*
X66861928Y-98040000D01*
X66865000Y-98054250D01*
X67023750Y-98213000D01*
X69123000Y-98213000D01*
X69123000Y-97197000D01*
X69377000Y-97197000D01*
X69377000Y-98213000D01*
X71476250Y-98213000D01*
X71635000Y-98054250D01*
X71638072Y-98040000D01*
X71625812Y-97915518D01*
X71589502Y-97795820D01*
X71540957Y-97705000D01*
X71589502Y-97614180D01*
X71625812Y-97494482D01*
X71638072Y-97370000D01*
X71635000Y-97355750D01*
X71476250Y-97197000D01*
X69377000Y-97197000D01*
X69123000Y-97197000D01*
X67023750Y-97197000D01*
X66865000Y-97355750D01*
X66861928Y-97370000D01*
X65323832Y-97370000D01*
X65303937Y-97340226D01*
X65159774Y-97196063D01*
X64990256Y-97082795D01*
X64801898Y-97004774D01*
X64601939Y-96965000D01*
X64398061Y-96965000D01*
X64198102Y-97004774D01*
X64009744Y-97082795D01*
X63840226Y-97196063D01*
X63696063Y-97340226D01*
X63582795Y-97509744D01*
X63504774Y-97698102D01*
X63465000Y-97898061D01*
X63465000Y-98072334D01*
X63301898Y-98004774D01*
X63101939Y-97965000D01*
X62898061Y-97965000D01*
X62698102Y-98004774D01*
X62509744Y-98082795D01*
X62340226Y-98196063D01*
X62196063Y-98340226D01*
X62082795Y-98509744D01*
X62004774Y-98698102D01*
X61965000Y-98898061D01*
X60635500Y-98898061D01*
X60635500Y-95898061D01*
X62465000Y-95898061D01*
X62465000Y-96101939D01*
X62504774Y-96301898D01*
X62582795Y-96490256D01*
X62696063Y-96659774D01*
X62840226Y-96803937D01*
X63009744Y-96917205D01*
X63198102Y-96995226D01*
X63398061Y-97035000D01*
X63601939Y-97035000D01*
X63801898Y-96995226D01*
X63990256Y-96917205D01*
X64159774Y-96803937D01*
X64203711Y-96760000D01*
X66862913Y-96760000D01*
X66861928Y-96770000D01*
X66865000Y-96784250D01*
X67023750Y-96943000D01*
X69123000Y-96943000D01*
X69123000Y-96923000D01*
X69377000Y-96923000D01*
X69377000Y-96943000D01*
X71476250Y-96943000D01*
X71635000Y-96784250D01*
X71638072Y-96770000D01*
X71625812Y-96645518D01*
X71589502Y-96525820D01*
X71540957Y-96435000D01*
X71589502Y-96344180D01*
X71625812Y-96224482D01*
X71638072Y-96100000D01*
X71638072Y-95500000D01*
X71625812Y-95375518D01*
X71589502Y-95255820D01*
X71530537Y-95145506D01*
X71451185Y-95048815D01*
X71354494Y-94969463D01*
X71244180Y-94910498D01*
X71124482Y-94874188D01*
X71000000Y-94861928D01*
X67500000Y-94861928D01*
X67375518Y-94874188D01*
X67255820Y-94910498D01*
X67145506Y-94969463D01*
X67048815Y-95048815D01*
X66969463Y-95145506D01*
X66918954Y-95240000D01*
X64203711Y-95240000D01*
X64159774Y-95196063D01*
X63990256Y-95082795D01*
X63801898Y-95004774D01*
X63601939Y-94965000D01*
X63398061Y-94965000D01*
X63198102Y-95004774D01*
X63009744Y-95082795D01*
X62840226Y-95196063D01*
X62696063Y-95340226D01*
X62582795Y-95509744D01*
X62504774Y-95698102D01*
X62465000Y-95898061D01*
X60635500Y-95898061D01*
X60635500Y-90635500D01*
X77930865Y-90635500D01*
X77840226Y-90696063D01*
G37*
%TD.AperFunction*%
%TD*%
M02*
